HIERARCHY
ROOT Hips
{
	OFFSET -14.64140 90.27770 -84.91600
	CHANNELS 6 Xposition Yposition Zposition Zrotation Xrotation Yrotation
	JOINT Spine
	{
		OFFSET 0.00000 13.20850 -1.60436
		CHANNELS 3 Zrotation Xrotation Yrotation
		JOINT Spine1
		{
			OFFSET 0.00000 8.61716 0.00000
			CHANNELS 3 Zrotation Xrotation Yrotation
			JOINT Spine2
			{
				OFFSET 0.00000 8.61717 0.00000
				CHANNELS 3 Zrotation Xrotation Yrotation
				JOINT Spine3
				{
					OFFSET 0.00000 8.61717 0.00000
					CHANNELS 3 Zrotation Xrotation Yrotation
					JOINT Neck
					{
						OFFSET 0.00000 11.07920 1.10792
						CHANNELS 3 Zrotation Xrotation Yrotation
						JOINT Neck1
						{
							OFFSET 0.00000 7.08032 0.00000
							CHANNELS 3 Zrotation Xrotation Yrotation
							JOINT Head
							{
								OFFSET 0.00000 7.08031 0.00000
								CHANNELS 3 Zrotation Xrotation Yrotation
								End site
								{
									OFFSET 0.00000 0.00000 0.00000
								}
							}
						}
					}
					JOINT RightShoulder
					{
						OFFSET -0.01000 7.91373 5.19711
						CHANNELS 3 Zrotation Xrotation Yrotation
						JOINT RightArm
						{
							OFFSET -18.41580 0.00000 0.00000
							CHANNELS 3 Zrotation Xrotation Yrotation
							JOINT RightForeArm
							{
								OFFSET -29.11090 0.00000 0.00000
								CHANNELS 3 Zrotation Xrotation Yrotation
								JOINT RightHand
								{
									OFFSET -24.65040 0.00000 0.00000
									CHANNELS 3 Zrotation Xrotation Yrotation
									JOINT RightHandThumb1
									{
										OFFSET -5.35114 -0.85590 3.97906
										CHANNELS 3 Zrotation Xrotation Yrotation
										JOINT RightHandThumb2
										{
											OFFSET -4.52789 0.00000 0.00000
											CHANNELS 3 Zrotation Xrotation Yrotation
											JOINT RightHandThumb3
											{
												OFFSET -2.46976 0.00000 0.00000
												CHANNELS 3 Zrotation Xrotation Yrotation
												End site
												{
													OFFSET 0.00000 0.00000 0.00000
												}
											}
										}
									}
									JOINT RightHandIndex1
									{
										OFFSET -14.26970 0.00000 2.88139
										CHANNELS 3 Zrotation Xrotation Yrotation
										JOINT RightHandIndex2
										{
											OFFSET -5.48836 0.00000 0.00000
											CHANNELS 3 Zrotation Xrotation Yrotation
											JOINT RightHandIndex3
											{
												OFFSET -3.01859 0.00000 0.00000
												CHANNELS 3 Zrotation Xrotation Yrotation
												End site
												{
													OFFSET 0.00000 0.00000 0.00000
												}
											}
										}
									}
									JOINT RightHandMiddle1
									{
										OFFSET -14.26970 0.00000 -0.09147
										CHANNELS 3 Zrotation Xrotation Yrotation
										JOINT RightHandMiddle2
										{
											OFFSET -6.17441 0.00000 0.00000
											CHANNELS 3 Zrotation Xrotation Yrotation
											JOINT RightHandMiddle3
											{
												OFFSET -3.56743 0.00000 0.00000
												CHANNELS 3 Zrotation Xrotation Yrotation
												End site
												{
													OFFSET 0.00000 0.00000 0.00000
												}
											}
										}
									}
									JOINT RightHandRing1
									{
										OFFSET -12.69180 0.00000 -3.06433
										CHANNELS 3 Zrotation Xrotation Yrotation
										JOINT RightHandRing2
										{
											OFFSET -5.62556 0.00000 0.00000
											CHANNELS 3 Zrotation Xrotation Yrotation
											JOINT RightHandRing3
											{
												OFFSET -3.56744 0.00000 0.00000
												CHANNELS 3 Zrotation Xrotation Yrotation
												End site
												{
													OFFSET 0.00000 0.00000 0.00000
												}
											}
										}
									}
									JOINT RightHandPinky1
									{
										OFFSET -11.11390 0.00000 -6.03719
										CHANNELS 3 Zrotation Xrotation Yrotation
										JOINT RightHandPinky2
										{
											OFFSET -4.52789 0.00000 0.00000
											CHANNELS 3 Zrotation Xrotation Yrotation
											JOINT RightHandPinky3
											{
												OFFSET -2.46976 0.00000 0.00000
												CHANNELS 3 Zrotation Xrotation Yrotation
												End site
												{
													OFFSET 0.00000 0.00000 0.00000
												}
											}
										}
									}
								}
							}
						}
					}
					JOINT LeftShoulder
					{
						OFFSET 0.01000 7.91373 5.19711
						CHANNELS 3 Zrotation Xrotation Yrotation
						JOINT LeftArm
						{
							OFFSET 18.41580 0.00000 0.00000
							CHANNELS 3 Zrotation Xrotation Yrotation
							JOINT LeftForeArm
							{
								OFFSET 29.11090 0.00000 0.00000
								CHANNELS 3 Zrotation Xrotation Yrotation
								JOINT LeftHand
								{
									OFFSET 24.65040 0.00000 0.00000
									CHANNELS 3 Zrotation Xrotation Yrotation
									JOINT LeftHandThumb1
									{
										OFFSET 5.35114 -0.85590 3.97906
										CHANNELS 3 Zrotation Xrotation Yrotation
										JOINT LeftHandThumb2
										{
											OFFSET 4.52789 0.00000 0.00000
											CHANNELS 3 Zrotation Xrotation Yrotation
											JOINT LeftHandThumb3
											{
												OFFSET 2.46977 0.00000 0.00000
												CHANNELS 3 Zrotation Xrotation Yrotation
												End site
												{
													OFFSET 0.00000 0.00000 0.00000
												}
											}
										}
									}
									JOINT LeftHandIndex1
									{
										OFFSET 14.26970 0.00000 2.88139
										CHANNELS 3 Zrotation Xrotation Yrotation
										JOINT LeftHandIndex2
										{
											OFFSET 5.48836 0.00000 0.00000
											CHANNELS 3 Zrotation Xrotation Yrotation
											JOINT LeftHandIndex3
											{
												OFFSET 3.01859 0.00000 0.00000
												CHANNELS 3 Zrotation Xrotation Yrotation
												End site
												{
													OFFSET 0.00000 0.00000 0.00000
												}
											}
										}
									}
									JOINT LeftHandMiddle1
									{
										OFFSET 14.26970 0.00000 -0.09147
										CHANNELS 3 Zrotation Xrotation Yrotation
										JOINT LeftHandMiddle2
										{
											OFFSET 6.17440 0.00000 0.00000
											CHANNELS 3 Zrotation Xrotation Yrotation
											JOINT LeftHandMiddle3
											{
												OFFSET 3.56744 0.00000 0.00000
												CHANNELS 3 Zrotation Xrotation Yrotation
												End site
												{
													OFFSET 0.00000 0.00000 0.00000
												}
											}
										}
									}
									JOINT LeftHandRing1
									{
										OFFSET 12.69180 0.00000 -3.06433
										CHANNELS 3 Zrotation Xrotation Yrotation
										JOINT LeftHandRing2
										{
											OFFSET 5.62556 0.00000 0.00000
											CHANNELS 3 Zrotation Xrotation Yrotation
											JOINT LeftHandRing3
											{
												OFFSET 3.56744 0.00000 0.00000
												CHANNELS 3 Zrotation Xrotation Yrotation
												End site
												{
													OFFSET 0.00000 0.00000 0.00000
												}
											}
										}
									}
									JOINT LeftHandPinky1
									{
										OFFSET 11.11390 0.00000 -6.03719
										CHANNELS 3 Zrotation Xrotation Yrotation
										JOINT LeftHandPinky2
										{
											OFFSET 4.52789 0.00000 0.00000
											CHANNELS 3 Zrotation Xrotation Yrotation
											JOINT LeftHandPinky3
											{
												OFFSET 2.46976 0.00000 0.00000
												CHANNELS 3 Zrotation Xrotation Yrotation
												End site
												{
													OFFSET 0.00000 0.00000 0.00000
												}
											}
										}
									}
								}
							}
						}
					}
					JOINT pCube4
					{
						OFFSET 0.00000 10.91090 1.10792
						CHANNELS 3 Zrotation Xrotation Yrotation
						End site
						{
							OFFSET 0.00000 0.00000 0.00000
						}
					}
				}
			}
		}
	}
	JOINT RightUpLeg
	{
		OFFSET -9.98441 0.00000 0.00000
		CHANNELS 3 Zrotation Xrotation Yrotation
		JOINT RightLeg
		{
			OFFSET 0.00000 -42.11790 0.00000
			CHANNELS 3 Zrotation Xrotation Yrotation
			JOINT RightFoot
			{
				OFFSET 0.00000 -45.00020 -0.00001
				CHANNELS 3 Zrotation Xrotation Yrotation
				JOINT RightForeFoot
				{
					OFFSET 0.00000 -3.74820 0.00000
					CHANNELS 3 Zrotation Xrotation Yrotation
					JOINT RightToeBase
					{
						OFFSET 0.00000 0.06325 14.43120
						CHANNELS 3 Zrotation Xrotation Yrotation
						End site
						{
							OFFSET 0.00000 0.00000 0.00000
						}
					}
				}
			}
		}
	}
	JOINT LeftUpLeg
	{
		OFFSET 9.98441 0.00000 0.00000
		CHANNELS 3 Zrotation Xrotation Yrotation
		JOINT LeftLeg
		{
			OFFSET 0.00000 -42.11800 0.00000
			CHANNELS 3 Zrotation Xrotation Yrotation
			JOINT LeftFoot
			{
				OFFSET 0.00000 -45.00070 0.00000
				CHANNELS 3 Zrotation Xrotation Yrotation
				JOINT LeftForeFoot
				{
					OFFSET 0.00000 -3.74824 0.00000
					CHANNELS 3 Zrotation Xrotation Yrotation
					JOINT LeftToeBase
					{
						OFFSET 0.00000 0.06325 14.43110
						CHANNELS 3 Zrotation Xrotation Yrotation
						End site
						{
							OFFSET 0.00000 0.00000 0.00000
						}
					}
				}
			}
		}
	}
}
MOTION
Frames: 4
Frame Time: 0.050000
-0.038612479315246855 -0.028052536716874923 -0.04838716245064594 -0.01922236599705629 0.007195711457028842 0.009937129851979275 1.7080103504788142 1.706530141057699 -1.6780317767130453 -0.676890665825956 3.6018673441558193 0.3648537255641645 -0.812508962962516 -1.331678127027583 0.9065228830421708 -0.7053257544616091 -0.5860843422364 -0.3737370021350716 0.18394212567305815 12.03567043428911 -0.9853986571989768 0.41239556779429587 -0.4941999822334019 -2.542169776159219 0.7852917544221806 -16.154614116977562 -0.19088127539109162 -6.9713874232608015 2.71884870068861 -16.535132707645147 77.12740652479933 1.1539175639492756 9.005955916337498 -19.178694344234174 6.99669031005282 79.20160123364613 8.068092558910234 0.4637144278203304 3.8159473749251682 4.552326448453359 -0.07912009254032681 -1.6001231666603342 -0.009711671327697633 -0.04639783853033107 -56.2078181225068 -0.0328378600966488 -0.009316246637447423 -56.27928027442024 -38.72165087937296 -0.006440284439484023 0.01646727610387715 -0.006693509943126283 -0.006800542129765358 -0.014504626797898212 0.004092194011985261 0.009042351212310638 0.010605348531707255 -36.69339941554439 -0.020611114789629383 0.039057230457013356 0.012246149858299193 -0.035410342110713124 -0.03295908248743138 0.022028161220461796 0.037254876518874595 0.04883221224957625 -19.75225211158559 -0.0442532913384328 0.029285105308551846 -0.026143605061075367 0.018260862702631376 0.028312198631016406 0.043153747403201506 -0.013649210955974283 -0.01786339048904598 24.037386920365133 0.0031568119242966946 0.003705469726818816 28.840037291012834 -0.020212295867289166 0.00026749830855586496 28.82182808413293 -0.03374959001190321 0.013314263057056148 6.623093573321163 1.7528155107137262 14.447416490818249 -75.97806225204408 19.240812754532268 -9.41725308105401 15.119123235812475 4.093041706422552 -57.90609789148928 -15.945041793000668 6.664555136046138 -2.994290390992504 -0.4740496935127994 0.06781909038552929 -8.1262688478395 0.019530849183011564 0.03666154550453431 44.51977559341099 -0.03645993543002836 -0.023977753003312872 44.555477256294026 12.451735761903056 0.021933479164487374 0.04027343058528688 0.020474507259059978 0.003546948218601233 0.040526071423966775 0.023218377126923286 -0.03565048713283169 0.03806796385502314 11.136590567619338 -0.010763864521990641 0.00409315974343346 -0.006497169996367886 0.03859041001929731 0.04471706189959464 -0.026270029073071216 0.004047732496033318 0.024400015182939213 4.777669682606383 0.044868904944741904 -0.013490607996966393 0.04627510640149097 0.03523399501130275 0.0324954014240682 -0.01543354078474542 0.02608737118536195 0.04143841226279415 -5.568962901086338 -0.020286701635543712 -0.002412108783621819 -6.701951097472889 -0.009892864522798618 -0.0003319239926913126 -6.727010447963777 -0.003770397366063466 -0.013951777427700804 0.035121947464036435 0.006096788353853437 0.023589809295699687 8.074981542843267 3.4960991874167395 -19.17011751541699 0.022316160435007303 10.35653271282191 0.02897868805420417 -5.579366216838578 -15.640672021422946 3.1805495995904187 -0.03142323684779964 -0.03121114633969555 -0.007894006401813099 0.025936381148137712 4.726838585319957 -0.008524897529729385 12.483869985465658 -8.283920530028608 6.880728480946898 -0.033492014566606575 46.42488737882765 0.039518184823415715 -4.368999002410607 -14.75609694754925 -3.8631964516240354 0.03060520065869724 0.021941933577416247 0.02321276210577886 -0.0006718765060823995 -10.793580608617473 -0.025293215162191435 
0.0009949040803878656 0.023928619096490633 -0.002274734861683836 0.03897584817477434 -0.010389471052078922 0.021421843322131595 1.4540366506745017 1.6647272629394423 -1.6179300838318047 -0.6433847407542211 3.671547811426394 0.32754852110929306 -0.8243885325740304 -1.4654525198689057 0.9412222933336745 -0.7049951474605699 -0.6375386370676642 -0.3350461666673838 0.1753366523217087 12.132518676088656 -0.9958828853951356 0.46692617092144056 -0.5040398808244091 -2.55225358891629 0.8385099751646586 -16.149776365637027 -0.2650993906065997 -6.409400800778952 2.507463910608602 -16.466214238371446 77.11926252460124 0.6266075109566155 8.696099817910113 -19.2411998112445 8.002216280752245 75.3180148247988 9.024973402692826 0.5057883400436862 4.453290772306674 4.508391055606897 -0.08208793980705945 -1.5954657265678347 0.005213152488575538 0.04533373032784876 -56.28076189248364 0.009238689371271954 -0.04691517202655336 -56.234794335650825 -38.76866377505838 0.030432379005982908 0.007040282369656059 0.012887295121059454 0.04322968288941281 -0.013052059409588607 -0.0038099346808524275 0.0022623841257861954 -0.016324183455294385 -36.705980270181115 0.012771962814118907 0.0442394864675483 -0.006441802206251474 -0.027849382228606372 -0.004281009101478833 0.04152387273543934 -0.016180162243493813 0.018212208944723453 -19.70898636140585 0.026965595584673093 -0.02203189792684382 -0.01620987392039967 0.04285202115186996 0.03807654260726824 -0.013575537274418216 0.020925167114932385 -0.01847642001018835 24.05161723720982 0.03394039328667722 0.04740582528650399 28.895117794933928 0.008843707585200096 0.008743961253677783 28.863159725998646 0.005346959276593938 -0.020381660898273608 6.279105064242515 1.6267956639784864 14.49667317001685 -76.57154199343105 17.620112175275327 -9.149469916291716 15.528943470001728 6.6585573067680786 -55.424119357587706 -17.036832014945123 8.786964751544561 -4.23687613900877 -0.47954943446284476 0.06258646768510752 -8.116912144851915 0.026151240385905362 -0.03492260386850068 44.54736673063089 -0.029402892133253995 -0.010715514675440376 44.56422958150897 12.440016679523914 -0.013580867563582127 0.03396835011314264 -0.017842766760002477 0.02096941258418127 -0.016969568362618388 -0.03448382299873845 -0.01715192585542823 0.037417370652621386 11.140473895149679 0.004610971008288587 0.04326226437399619 0.0007931480562859876 9.439045588356185e-05 0.008027108886369988 -0.030904209562473847 -0.011744898026347336 0.03423236930655212 4.743989983695627 -0.016289041576592504 -0.005941288954626352 -0.011486903989557647 0.04246323232925517 0.03161655489531283 0.02622128245897401 0.03148576691642441 0.041469978290916934 -5.625399354971217 -0.010316046917901467 0.024061345665405968 -6.709593282176334 -0.04324324059701114 0.03987030373839553 -6.767713755788321 -0.004265976788623114 0.010334499358138703 0.04142560853440338 0.025677681743983636 -0.009786898869873557 8.085033059436066 3.483341856712124 -19.22944414940075 -0.023823175578052403 10.403641568183794 0.022067882091167283 -5.57511617204725 -15.616248972233782 3.169162383595252 0.03257435339055276 -0.03742665549042866 -0.035281269581002084 -0.04744662357781965 4.695517151282425 -0.03283467081156597 12.482978251910794 -8.211851392583899 6.859442797024649 0.04425111926762801 46.36408141501531 -0.0456688440010079 -4.344854065033968 -14.710421301892639 -3.826774052256624 -0.04049939037335508 -0.029147383824583796 0.012909349234314981 -0.013552467145723869 -10.727377159995287 0.015710081327777663 
0.03395205073864194 0.003348161752249375 0.0201244320859798 -0.0327202612733439 0.01462481843018357 -0.03277310599182956 0.8638595051082901 1.5853573452580136 -1.543158602380619 -0.6510459528983092 3.725211878762927 0.35620853497864163 -0.7712446671482572 -1.4618032616568994 0.9654718352580915 -0.7443405563211651 -0.619795271588513 -0.33102963930424956 0.09952943759648882 12.264569901837072 -0.9132764590522907 0.40551753306293303 -0.5254312539542362 -2.740574915401064 0.8381596082109319 -16.09093964506731 -0.29602209821176906 -5.48223616535948 2.270962899897971 -16.225570552734307 76.67877187930252 1.568891795488883 8.51632452865681 -19.291617111099715 8.573112500763122 73.69496211647444 10.161892337286742 0.4515207723760158 4.746866131139794 4.5143996712187455 -0.10869077675083588 -1.6194647526896173 0.0013631343580468205 -0.020421717531891703 -56.22213223405166 -0.005061639172798475 -0.007582679706621685 -56.22891223960763 -38.76647185865048 -0.03725216899771323 0.0014644141957058537 -0.012662648458333224 -0.028591826963547024 -0.027348844390143495 -0.010119300076194309 0.0337372493474733 -0.022009044699798152 -36.685313860716505 -0.015001986391345404 -0.030848401325480408 -0.029954561934007338 0.033833279114857215 0.04028912039523419 -0.0442170806332928 -0.049901117045958114 -0.017263161634273213 -19.771742674370074 -0.014105368874150027 -0.02934715535119956 -0.0419577720871857 0.028190722617598658 -0.040193907784722996 -0.044576328407464415 -0.01767094648629859 -0.0075855091783586116 24.04474034701218 -0.0052402952170036415 0.007063704103832927 28.877776279342697 -0.009588426364846829 -0.012263471484541936 28.886480886129615 -0.004840667170557869 -0.04827855849424499 5.6746942717021875 1.5456945647739577 14.483689730359398 -76.94773396504515 16.893134155105834 -9.011500530758008 15.931969517769124 7.749692361437122 -55.89267839125734 -17.924041896499016 10.570483195467721 -5.440312150478177 -0.46412210733426174 0.1005980034525489 -8.10584646704824 0.004830661329975058 0.03229515690574857 44.53619428420538 0.028712578933412666 0.04293725542578858 44.52801779182249 12.450238610571892 -0.02699228922149145 0.013627476293331104 0.02036953043505169 0.011336701851587977 0.0183537873817473 -0.015272375057420379 -0.041299858478309616 0.044262126204283846 11.081491889272003 0.0373753038663809 0.03004472607399751 -0.007062769713656541 -0.04179888481815173 0.026448695375040885 -0.013572388259521395 0.039682361082406775 -0.024362941405853267 4.753964481830305 0.03026515487651838 -0.0103984102782236 -0.04353974506036285 -0.011221829447415411 0.0002653155338164388 0.02338533215564509 -0.029130503041538997 0.0456857741350048 -5.627259831838547 0.04745777891484837 0.032139933035878136 -6.733964904805195 -0.03808981990213421 -0.007021256538794494 -6.730098772961605 0.008037757859045588 -0.049323468962114966 0.041573087704298246 0.005528154155461077 -0.04296587751036463 7.999406469699997 3.496785804781921 -19.1965273941239 0.046846669716282145 10.443835485153247 0.0068660361829407865 -5.637548520410332 -15.632870629108854 3.2418806899040007 -0.005310541678411288 0.035114493684115476 -0.04834573599685443 0.027774947227415143 4.7228485626808165 -0.018775631296133192 12.489122027394293 -8.234110833319939 6.904408202370146 -0.01577061005077286 46.410628587500135 0.006784356494393852 -4.370693624376463 -14.742430042151925 -3.838056122096034 0.028923532165130834 -0.0019967347058389776 0.030095355914392163 0.013760815877499158 -10.747515929900224 -0.01686761783962879 
-0.0042524891621343345 -0.04179298523277028 -0.04178114491009217 -0.02552336822603612 0.04830320114901253 0.02572521392882185 0.15006005233591616 1.44242441040415 -1.4503602499058545 -0.5686756081860348 3.7571865192201463 0.3809376700421645 -0.7864398831634579 -1.61146751546597 0.9411864158104617 -0.7402915982046604 -0.6873203019971492 -0.38173585878177396 0.05783216875266119 12.438436766175563 -0.9490561916455555 0.48704998661758486 -0.5886645780949873 -2.9400962481035315 0.8577243719926032 -15.975610663873503 -0.30284652972463755 -4.351466316117307 1.8909758639338896 -15.85361154729707 75.64471774116899 3.535469960707455 8.530551862802389 -18.832525313853274 8.651681518948541 75.09091849827642 11.182005023643184 0.38792987302417065 4.6880114342417505 4.528329295525537 -0.09196224875671308 -1.5963542748413875 -0.015756209623251596 -0.012102947231254187 -56.23193804011659 -0.04374404911297708 -0.0008173650881130689 -56.26660743445782 -38.72694754552765 0.0373068038505517 0.039816989427712605 -0.032838490204278155 0.008443058841003999 0.024371641021265524 -0.017796605264036258 -0.01580842934239976 -0.01470647333326238 -36.67027504863234 -0.006818218328486495 -0.01578974646644768 -0.005338919264105253 0.0030404455430729583 0.03755048884433599 -0.04028943297394851 -0.04782023756724994 -0.042766897229359085 -19.734948033909635 -0.01830589989721152 0.006595876395954252 -0.009283483425890422 -0.01651209889133089 -0.03538743601697894 -0.014560932008542918 0.005474109882551562 0.0466109806690519 24.05862190492458 -0.006721887684864769 0.031260187046312726 28.87033979154592 -0.026354943770696644 0.024073860993372772 28.887669862988062 0.038829812250827773 0.043487759360135894 4.946948486724557 1.3952535932619354 14.416897974073482 -76.75714353692962 17.60530025598149 -8.904213547478925 16.557375587066606 6.429032292325132 -59.83438589207925 -18.45031624707024 11.767957067246432 -6.634087182754797 -0.45595552006438644 0.033975675280766164 -8.097410416792984 0.02457733875015956 0.04738220181221152 44.585227777331085 0.023197569725828763 0.033491807984096254 44.574374050791995 12.500911428902468 0.026373866569766768 0.02453726573554079 -0.04447116788554726 0.027366198873237685 0.029222198283322436 0.03628538068087687 -0.030153167369665817 -0.005879974393796524 11.143991919430762 -0.029096408307897035 -0.020758856915211586 0.04659178162774349 0.003266604295098016 -0.043800671238915276 -0.04319096709074513 0.04083813768000097 0.007731139994557141 4.781472382383525 0.030400220993928976 -0.04630428234195577 -0.03226861415153292 0.04136327837747213 -0.03939693129296532 0.03373143793116956 0.0007848979298574425 0.041560338112245424 -5.575698841168928 0.0004894922259343241 -0.030649838424547295 -6.723835205524956 -0.030287544605846487 0.03516428066978097 -6.704110261741682 0.030141213542416462 0.037483597612435963 -0.0064603795911272665 -0.0006062075433835754 0.00423125901582511 8.019788438408037 3.5063369678518925 -19.24010877323975 0.0014693549242484004 10.37575677130891 0.04592404381429177 -5.60984358301441 -15.637068663340864 3.1999145324760843 0.012327809979629388 0.0027026271002146885 0.029756748143178403 -0.04522759736031845 4.684562774176718 -0.04379819297803397 12.437103813758505 -8.264827507638875 6.8671140258230015 0.0053848874124560325 46.347652154962304 0.015290754183201076 -4.344166609321218 -14.768069748866798 -3.816289146307962 0.03742055544499958 0.04135563595157372 0.028379907155186634 0.030552232907751917 -10.745836642927607 0.029274442191317914 
